%TF.GenerationSoftware,KiCad,Pcbnew,(6.0.9)*%
%TF.CreationDate,2023-02-11T16:03:26+01:00*%
%TF.ProjectId,display_board,64697370-6c61-4795-9f62-6f6172642e6b,rev?*%
%TF.SameCoordinates,Original*%
%TF.FileFunction,Soldermask,Top*%
%TF.FilePolarity,Negative*%
%FSLAX46Y46*%
G04 Gerber Fmt 4.6, Leading zero omitted, Abs format (unit mm)*
G04 Created by KiCad (PCBNEW (6.0.9)) date 2023-02-11 16:03:26*
%MOMM*%
%LPD*%
G01*
G04 APERTURE LIST*
G04 Aperture macros list*
%AMRoundRect*
0 Rectangle with rounded corners*
0 $1 Rounding radius*
0 $2 $3 $4 $5 $6 $7 $8 $9 X,Y pos of 4 corners*
0 Add a 4 corners polygon primitive as box body*
4,1,4,$2,$3,$4,$5,$6,$7,$8,$9,$2,$3,0*
0 Add four circle primitives for the rounded corners*
1,1,$1+$1,$2,$3*
1,1,$1+$1,$4,$5*
1,1,$1+$1,$6,$7*
1,1,$1+$1,$8,$9*
0 Add four rect primitives between the rounded corners*
20,1,$1+$1,$2,$3,$4,$5,0*
20,1,$1+$1,$4,$5,$6,$7,0*
20,1,$1+$1,$6,$7,$8,$9,0*
20,1,$1+$1,$8,$9,$2,$3,0*%
G04 Aperture macros list end*
%ADD10C,1.600000*%
%ADD11O,1.600000X1.600000*%
%ADD12C,3.000000*%
%ADD13R,1.600000X1.600000*%
%ADD14R,1.500000X1.500000*%
%ADD15C,1.500000*%
%ADD16C,2.000000*%
%ADD17O,5.000000X5.000000*%
%ADD18R,1.905000X2.000000*%
%ADD19O,1.905000X2.000000*%
%ADD20C,2.500000*%
%ADD21C,1.750000*%
%ADD22C,6.350000*%
%ADD23R,1.700000X1.700000*%
%ADD24O,1.700000X1.700000*%
%ADD25R,2.000000X2.000000*%
%ADD26C,2.600000*%
%ADD27R,2.200000X2.200000*%
%ADD28O,2.200000X2.200000*%
%ADD29R,3.500000X3.500000*%
%ADD30RoundRect,0.750000X-1.000000X0.750000X-1.000000X-0.750000X1.000000X-0.750000X1.000000X0.750000X0*%
%ADD31RoundRect,0.875000X-0.875000X0.875000X-0.875000X-0.875000X0.875000X-0.875000X0.875000X0.875000X0*%
G04 APERTURE END LIST*
D10*
%TO.C,R46*%
X169177500Y-85725000D03*
D11*
X179337500Y-85725000D03*
%TD*%
D12*
%TO.C,F1*%
X67177875Y-84137500D03*
X67177875Y-99060000D03*
%TD*%
%TO.C,TP3*%
X67260000Y-118427500D03*
%TD*%
D10*
%TO.C,C4*%
X137427500Y-88900000D03*
X137427500Y-93900000D03*
%TD*%
D13*
%TO.C,V7*%
X217437500Y-74612500D03*
D11*
X207277500Y-74612500D03*
%TD*%
D10*
%TO.C,C9*%
X174575000Y-103505000D03*
X174575000Y-98505000D03*
%TD*%
%TO.C,R12*%
X197435000Y-117657500D03*
D11*
X207595000Y-117657500D03*
%TD*%
D14*
%TO.C,VT11*%
X135840000Y-117157500D03*
D15*
X138380000Y-114617500D03*
X140920000Y-117157500D03*
%TD*%
D16*
%TO.C,E3*%
X151397500Y-128587500D03*
X148540000Y-130492500D03*
X147270000Y-133667500D03*
X147270000Y-136842500D03*
X148540000Y-140017500D03*
X151397500Y-141922500D03*
X154890000Y-142875000D03*
X158382500Y-141922500D03*
X161240000Y-140017500D03*
X162510000Y-136842500D03*
X162510000Y-133667500D03*
X161240000Y-130492500D03*
X158382500Y-128587500D03*
%TD*%
D10*
%TO.C,R6*%
X115202500Y-93980000D03*
D11*
X125362500Y-93980000D03*
%TD*%
D10*
%TO.C,R10*%
X144412500Y-106045000D03*
D11*
X144412500Y-95885000D03*
%TD*%
D16*
%TO.C,E2*%
X178385000Y-128587500D03*
X175527500Y-130492500D03*
X174257500Y-133667500D03*
X174257500Y-136842500D03*
X175527500Y-140017500D03*
X178385000Y-141922500D03*
X181877500Y-142875000D03*
X185370000Y-141922500D03*
X188227500Y-140017500D03*
X189497500Y-136842500D03*
X189497500Y-133667500D03*
X188227500Y-130492500D03*
X185370000Y-128587500D03*
%TD*%
D14*
%TO.C,VT4*%
X145047500Y-123055000D03*
D15*
X147587500Y-120515000D03*
X150127500Y-123055000D03*
%TD*%
D14*
%TO.C,VT14*%
X150127500Y-92710000D03*
D15*
X152667500Y-90170000D03*
X155207500Y-92710000D03*
%TD*%
D10*
%TO.C,R27*%
X130760000Y-120515000D03*
D11*
X140920000Y-120515000D03*
%TD*%
D10*
%TO.C,R32*%
X152350000Y-123055000D03*
D11*
X162510000Y-123055000D03*
%TD*%
D12*
%TO.C,TP1*%
X67260000Y-108267500D03*
%TD*%
D10*
%TO.C,R14*%
X145047500Y-117657500D03*
D11*
X155207500Y-117657500D03*
%TD*%
D10*
%TO.C,R20*%
X145047500Y-114617500D03*
D11*
X155207500Y-114617500D03*
%TD*%
D10*
%TO.C,R22*%
X94247500Y-114617500D03*
D11*
X104407500Y-114617500D03*
%TD*%
D10*
%TO.C,R13*%
X174575000Y-117657500D03*
D11*
X184735000Y-117657500D03*
%TD*%
D14*
%TO.C,VT9*%
X186957500Y-117157500D03*
D15*
X189497500Y-114617500D03*
X192037500Y-117157500D03*
%TD*%
D10*
%TO.C,R30*%
X204737500Y-123055000D03*
D11*
X214897500Y-123055000D03*
%TD*%
D10*
%TO.C,R36*%
X216217500Y-90805000D03*
D11*
X216217500Y-80645000D03*
%TD*%
D10*
%TO.C,R43*%
X212040000Y-85725000D03*
D11*
X201880000Y-85725000D03*
%TD*%
D17*
%TO.C,VT1*%
X120600000Y-73660000D03*
D18*
X118060000Y-90320000D03*
D19*
X120600000Y-90320000D03*
X123140000Y-90320000D03*
%TD*%
D10*
%TO.C,C10*%
X210452500Y-98505000D03*
X210452500Y-103505000D03*
%TD*%
%TO.C,C5*%
X129172500Y-98425000D03*
X129172500Y-103425000D03*
%TD*%
%TO.C,R37*%
X158700000Y-90170000D03*
D11*
X168860000Y-90170000D03*
%TD*%
D10*
%TO.C,R5*%
X115202500Y-101600000D03*
D11*
X125362500Y-101600000D03*
%TD*%
D20*
%TO.C,S3*%
X184075000Y-70802500D03*
X191085000Y-70802500D03*
D21*
X185325000Y-68312500D03*
X189825000Y-68312500D03*
%TD*%
D10*
%TO.C,R39*%
X115202500Y-110807500D03*
D11*
X115202500Y-120967500D03*
%TD*%
D12*
%TO.C,A1*%
X99645000Y-85248627D03*
D22*
X105195788Y-71990375D03*
X83841163Y-93345000D03*
D12*
X91923394Y-77527021D03*
%TD*%
%TO.C,TP2*%
X67260000Y-113347500D03*
%TD*%
D10*
%TO.C,R45*%
X219710000Y-120650000D03*
D11*
X219710000Y-130810000D03*
%TD*%
D14*
%TO.C,VT2*%
X197435000Y-123055000D03*
D15*
X199975000Y-120515000D03*
X202515000Y-123055000D03*
%TD*%
D13*
%TO.C,V6*%
X205055000Y-74612500D03*
D11*
X194895000Y-74612500D03*
%TD*%
D14*
%TO.C,VT12*%
X106630000Y-117157500D03*
D15*
X109170000Y-114617500D03*
X111710000Y-117157500D03*
%TD*%
D23*
%TO.C,X2*%
X222567500Y-98425000D03*
D24*
X222567500Y-100965000D03*
X222567500Y-103505000D03*
X222567500Y-106045000D03*
X222567500Y-108585000D03*
X222567500Y-111125000D03*
X222567500Y-113665000D03*
%TD*%
D14*
%TO.C,VT15*%
X198070000Y-88265000D03*
D15*
X195530000Y-85725000D03*
X198070000Y-83185000D03*
%TD*%
D23*
%TO.C,X6*%
X222567500Y-74612500D03*
%TD*%
D20*
%TO.C,S2*%
X178702500Y-70802500D03*
X171692500Y-70802500D03*
D21*
X172942500Y-68312500D03*
X177442500Y-68312500D03*
%TD*%
D10*
%TO.C,R15*%
X123457500Y-117657500D03*
D11*
X133617500Y-117657500D03*
%TD*%
D20*
%TO.C,S1*%
X166320000Y-70802500D03*
X159310000Y-70802500D03*
D21*
X160560000Y-68312500D03*
X165060000Y-68312500D03*
%TD*%
D14*
%TO.C,VT5*%
X123457500Y-123055000D03*
D15*
X125997500Y-120515000D03*
X128537500Y-123055000D03*
%TD*%
D10*
%TO.C,C6*%
X131792500Y-93980000D03*
X131792500Y-88980000D03*
%TD*%
%TO.C,R26*%
X152350000Y-120515000D03*
D11*
X162510000Y-120515000D03*
%TD*%
D10*
%TO.C,R8*%
X125362500Y-96520000D03*
D11*
X115202500Y-96520000D03*
%TD*%
D10*
%TO.C,R2*%
X147270000Y-93980000D03*
D11*
X147270000Y-83820000D03*
%TD*%
D10*
%TO.C,C11*%
X129172500Y-110172500D03*
X129172500Y-105172500D03*
%TD*%
%TO.C,R3*%
X140602500Y-93980000D03*
D11*
X140602500Y-83820000D03*
%TD*%
D10*
%TO.C,R38*%
X158700000Y-92710000D03*
D11*
X168860000Y-92710000D03*
%TD*%
D14*
%TO.C,VT3*%
X174575000Y-123055000D03*
D15*
X177115000Y-120515000D03*
X179655000Y-123055000D03*
%TD*%
D16*
%TO.C,E6*%
X76150000Y-128587500D03*
X73292500Y-130492500D03*
X72022500Y-133667500D03*
X72022500Y-136842500D03*
X73292500Y-140017500D03*
X76150000Y-141922500D03*
X79642500Y-142875000D03*
X83135000Y-141922500D03*
X85992500Y-140017500D03*
X87262500Y-136842500D03*
X87262500Y-133667500D03*
X85992500Y-130492500D03*
X83135000Y-128587500D03*
%TD*%
D13*
%TO.C,D1*%
X170765000Y-97155000D03*
D11*
X168225000Y-97155000D03*
X165685000Y-97155000D03*
X163145000Y-97155000D03*
X160605000Y-97155000D03*
X158065000Y-97155000D03*
X155525000Y-97155000D03*
X152985000Y-97155000D03*
X152985000Y-104775000D03*
X155525000Y-104775000D03*
X158065000Y-104775000D03*
X160605000Y-104775000D03*
X163145000Y-104775000D03*
X165685000Y-104775000D03*
X168225000Y-104775000D03*
X170765000Y-104775000D03*
%TD*%
D10*
%TO.C,C7*%
X129172500Y-93980000D03*
X129172500Y-88980000D03*
%TD*%
%TO.C,R11*%
X144412500Y-93980000D03*
D11*
X144412500Y-83820000D03*
%TD*%
D10*
%TO.C,R25*%
X181877500Y-120515000D03*
D11*
X192037500Y-120515000D03*
%TD*%
D10*
%TO.C,R34*%
X101550000Y-123055000D03*
D11*
X111710000Y-123055000D03*
%TD*%
D10*
%TO.C,R44*%
X201880000Y-88265000D03*
D11*
X212040000Y-88265000D03*
%TD*%
D14*
%TO.C,VT13*%
X83452500Y-117157500D03*
D15*
X85992500Y-114617500D03*
X88532500Y-117157500D03*
%TD*%
D10*
%TO.C,C2*%
X74562500Y-85487500D03*
X74562500Y-90487500D03*
%TD*%
%TO.C,R40*%
X120282500Y-110807500D03*
D11*
X120282500Y-120967500D03*
%TD*%
D14*
%TO.C,VT8*%
X209817500Y-117157500D03*
D15*
X212357500Y-114617500D03*
X214897500Y-117157500D03*
%TD*%
D13*
%TO.C,V3*%
X167907500Y-74612500D03*
D11*
X157747500Y-74612500D03*
%TD*%
D10*
%TO.C,C3*%
X74562500Y-77470000D03*
X74562500Y-82470000D03*
%TD*%
%TO.C,R4*%
X134252500Y-83820000D03*
D11*
X134252500Y-93980000D03*
%TD*%
D10*
%TO.C,R23*%
X71070000Y-114617500D03*
D11*
X81230000Y-114617500D03*
%TD*%
D10*
%TO.C,R1*%
X60007500Y-139700000D03*
X63407500Y-139700000D03*
%TD*%
D16*
%TO.C,E1*%
X202515000Y-128587500D03*
X199657500Y-130492500D03*
X198387500Y-133667500D03*
X198387500Y-136842500D03*
X199657500Y-140017500D03*
X202515000Y-141922500D03*
X206007500Y-142875000D03*
X209500000Y-141922500D03*
X212357500Y-140017500D03*
X213627500Y-136842500D03*
X213627500Y-133667500D03*
X212357500Y-130492500D03*
X209500000Y-128587500D03*
%TD*%
%TO.C,E5*%
X100280000Y-128587500D03*
X97422500Y-130492500D03*
X96152500Y-133667500D03*
X96152500Y-136842500D03*
X97422500Y-140017500D03*
X100280000Y-141922500D03*
X103772500Y-142875000D03*
X107265000Y-141922500D03*
X110122500Y-140017500D03*
X111392500Y-136842500D03*
X111392500Y-133667500D03*
X110122500Y-130492500D03*
X107265000Y-128587500D03*
%TD*%
D14*
%TO.C,VT7*%
X71070000Y-123055000D03*
D15*
X73610000Y-120515000D03*
X76150000Y-123055000D03*
%TD*%
D10*
%TO.C,R28*%
X101550000Y-120515000D03*
D11*
X111710000Y-120515000D03*
%TD*%
D10*
%TO.C,R18*%
X197435000Y-114617500D03*
D11*
X207595000Y-114617500D03*
%TD*%
D14*
%TO.C,VT6*%
X94247500Y-123055000D03*
D15*
X96787500Y-120515000D03*
X99327500Y-123055000D03*
%TD*%
D10*
%TO.C,R29*%
X78372500Y-120515000D03*
D11*
X88532500Y-120515000D03*
%TD*%
D25*
%TO.C,C8*%
X95517500Y-104467500D03*
D16*
X95517500Y-108267500D03*
%TD*%
D10*
%TO.C,R42*%
X171082500Y-110807500D03*
D11*
X171082500Y-120967500D03*
%TD*%
D26*
%TO.C,L1*%
X104407500Y-108267500D03*
X109407500Y-108267500D03*
%TD*%
D10*
%TO.C,R41*%
X166002500Y-110807500D03*
D11*
X166002500Y-120967500D03*
%TD*%
D13*
%TO.C,V4*%
X180290000Y-74612500D03*
D11*
X170130000Y-74612500D03*
%TD*%
D13*
%TO.C,V5*%
X192672500Y-74612500D03*
D11*
X182512500Y-74612500D03*
%TD*%
D14*
%TO.C,VT10*%
X157430000Y-117157500D03*
D15*
X159970000Y-114617500D03*
X162510000Y-117157500D03*
%TD*%
D20*
%TO.C,S5*%
X208840000Y-70802500D03*
X215850000Y-70802500D03*
D21*
X210090000Y-68312500D03*
X214590000Y-68312500D03*
%TD*%
D12*
%TO.C,TP4*%
X67310000Y-125730000D03*
%TD*%
D13*
%TO.C,D2*%
X206642500Y-97155000D03*
D11*
X204102500Y-97155000D03*
X201562500Y-97155000D03*
X199022500Y-97155000D03*
X196482500Y-97155000D03*
X193942500Y-97155000D03*
X191402500Y-97155000D03*
X188862500Y-97155000D03*
X188862500Y-104775000D03*
X191402500Y-104775000D03*
X193942500Y-104775000D03*
X196482500Y-104775000D03*
X199022500Y-104775000D03*
X201562500Y-104775000D03*
X204102500Y-104775000D03*
X206642500Y-104775000D03*
%TD*%
D10*
%TO.C,R9*%
X115202500Y-104140000D03*
D11*
X125362500Y-104140000D03*
%TD*%
D10*
%TO.C,R19*%
X174575000Y-114617500D03*
D11*
X184735000Y-114617500D03*
%TD*%
D16*
%TO.C,E4*%
X127267500Y-128587500D03*
X124410000Y-130492500D03*
X123140000Y-133667500D03*
X123140000Y-136842500D03*
X124410000Y-140017500D03*
X127267500Y-141922500D03*
X130760000Y-142875000D03*
X134252500Y-141922500D03*
X137110000Y-140017500D03*
X138380000Y-136842500D03*
X138380000Y-133667500D03*
X137110000Y-130492500D03*
X134252500Y-128587500D03*
%TD*%
D23*
%TO.C,X3*%
X222567500Y-80645000D03*
D24*
X222567500Y-83185000D03*
X222567500Y-85725000D03*
X222567500Y-88265000D03*
X222567500Y-90805000D03*
X222567500Y-93345000D03*
X222567500Y-95885000D03*
%TD*%
D13*
%TO.C,C1*%
X83452500Y-104457500D03*
D10*
X83452500Y-108257500D03*
%TD*%
%TO.C,R17*%
X71070000Y-117657500D03*
D11*
X81230000Y-117657500D03*
%TD*%
D10*
%TO.C,R33*%
X130760000Y-123055000D03*
D11*
X140920000Y-123055000D03*
%TD*%
D20*
%TO.C,S4*%
X203467500Y-70802500D03*
X196457500Y-70802500D03*
D21*
X197707500Y-68312500D03*
X202207500Y-68312500D03*
%TD*%
D27*
%TO.C,V1*%
X74562500Y-103822500D03*
D28*
X74562500Y-93662500D03*
%TD*%
D10*
%TO.C,R35*%
X78372500Y-123055000D03*
D11*
X88532500Y-123055000D03*
%TD*%
D23*
%TO.C,X5*%
X166002500Y-123507500D03*
D24*
X168542500Y-123507500D03*
X171082500Y-123507500D03*
%TD*%
D23*
%TO.C,X7*%
X222567500Y-72072500D03*
%TD*%
D10*
%TO.C,R16*%
X94247500Y-117657500D03*
D11*
X104407500Y-117657500D03*
%TD*%
D10*
%TO.C,R7*%
X125362500Y-99060000D03*
D11*
X115202500Y-99060000D03*
%TD*%
D23*
%TO.C,X4*%
X115202500Y-123482500D03*
D24*
X117742500Y-123482500D03*
X120282500Y-123482500D03*
%TD*%
D10*
%TO.C,R24*%
X204737500Y-120515000D03*
D11*
X214897500Y-120515000D03*
%TD*%
D13*
%TO.C,A2*%
X140602500Y-97155000D03*
D11*
X138062500Y-97155000D03*
X135522500Y-97155000D03*
X132982500Y-97155000D03*
X132982500Y-104775000D03*
X135522500Y-104775000D03*
X138062500Y-104775000D03*
X140602500Y-104775000D03*
%TD*%
D29*
%TO.C,X1*%
X67182875Y-76835000D03*
D30*
X67182875Y-70835000D03*
D31*
X62482875Y-73835000D03*
%TD*%
D10*
%TO.C,R21*%
X123457500Y-114617500D03*
D11*
X133617500Y-114617500D03*
%TD*%
D14*
%TO.C,VT17*%
X191402500Y-88265000D03*
D15*
X188862500Y-85725000D03*
X191402500Y-83185000D03*
%TD*%
D27*
%TO.C,V2*%
X112027500Y-100647500D03*
D28*
X112027500Y-90487500D03*
%TD*%
D10*
%TO.C,R47*%
X179337500Y-83185000D03*
D11*
X169177500Y-83185000D03*
%TD*%
D10*
%TO.C,R31*%
X181877500Y-123055000D03*
D11*
X192037500Y-123055000D03*
%TD*%
D14*
%TO.C,VT16*%
X184417500Y-88265000D03*
D15*
X181877500Y-85725000D03*
X184417500Y-83185000D03*
%TD*%
G36*
X126257121Y-70187502D02*
G01*
X126303614Y-70241158D01*
X126315000Y-70293500D01*
X126315000Y-87186500D01*
X126294998Y-87254621D01*
X126241342Y-87301114D01*
X126189000Y-87312500D01*
X115011000Y-87312500D01*
X114942879Y-87292498D01*
X114896386Y-87238842D01*
X114885000Y-87186500D01*
X114885000Y-70293500D01*
X114905002Y-70225379D01*
X114958658Y-70178886D01*
X115011000Y-70167500D01*
X126189000Y-70167500D01*
X126257121Y-70187502D01*
G37*
G36*
X110412121Y-66842502D02*
G01*
X110458614Y-66896158D01*
X110470000Y-66948500D01*
X110470000Y-87270310D01*
X110449998Y-87338431D01*
X110433095Y-87359405D01*
X99006905Y-98785595D01*
X98944593Y-98819621D01*
X98917810Y-98822500D01*
X78596000Y-98822500D01*
X78527879Y-98802498D01*
X78481386Y-98748842D01*
X78470000Y-98696500D01*
X78470000Y-66948500D01*
X78490002Y-66880379D01*
X78543658Y-66833886D01*
X78596000Y-66822500D01*
X110344000Y-66822500D01*
X110412121Y-66842502D01*
G37*
M02*
