M48
; DRILL file {KiCad (6.0.9)} date Sat Feb 11 16:03:47 2023
; FORMAT={-:-/ absolute / inch / decimal}
; #@! TF.CreationDate,2023-02-11T16:03:47+01:00
; #@! TF.GenerationSoftware,Kicad,Pcbnew,(6.0.9)
; #@! TF.FileFunction,Plated,1,2,PTH
FMAT,2
INCH
; #@! TA.AperFunction,Plated,PTH,ViaDrill
T1C0.0197
; #@! TA.AperFunction,Plated,PTH,ComponentDrill
T2C0.0315
; #@! TA.AperFunction,Plated,PTH,ComponentDrill
T3C0.0390
; #@! TA.AperFunction,Plated,PTH,ComponentDrill
T4C0.0394
; #@! TA.AperFunction,Plated,PTH,ComponentDrill
T5C0.0433
; #@! TA.AperFunction,Plated,PTH,ComponentDrill
T6C0.0512
; #@! TA.AperFunction,Plated,PTH,ComponentDrill
T7C0.0591
; #@! TA.AperFunction,Plated,PTH,ComponentDrill
T8C0.0709
; #@! TA.AperFunction,Plated,PTH,ViaDrill
T9C0.1181
; #@! TA.AperFunction,Plated,PTH,ComponentDrill
T10C0.1181
; #@! TA.AperFunction,Plated,PTH,ComponentDrill
T11C0.1575
%
G90
G05
T1
X3.4855Y-4.375
X5.723Y-4.325
X5.8105Y-4.325
X5.8355Y-3.975
X5.898Y-4.325
X6.723Y-3.6875
X6.923Y-3.6875
X6.9855Y-3.7875
X6.9855Y-4.05
X7.048Y-3.85
X7.048Y-4.1125
X7.1105Y-3.9125
X7.1105Y-4.1625
X7.273Y-4.3375
X7.3605Y-4.3375
X7.6855Y-5.45
X7.773Y-5.075
X7.8605Y-3.55
X7.873Y-4.275
X7.873Y-4.3375
X8.023Y-4.275
X8.098Y-4.3375
X8.098Y-4.4
X8.1769Y-4.2125
X8.225Y-3.0875
X8.2605Y-4.4
X8.4355Y-4.4
X8.4855Y-4.0875
X8.5625Y-3.7375
X8.5625Y-4.475
T2
X2.3625Y-5.5
X2.4964Y-5.5
X2.798Y-4.5125
X2.798Y-4.6322
X2.798Y-4.8447
X2.8355Y-5.2625
X2.8355Y-5.3875
X2.8855Y-5.1375
X2.8855Y-5.5125
X2.898Y-4.7447
X2.9355Y-3.05
X2.9355Y-3.2469
X2.9355Y-3.3656
X2.9355Y-3.5625
X2.998Y-4.8447
X2.998Y-5.0625
X2.998Y-5.5875
X3.0855Y-4.7447
X3.0855Y-4.8447
X3.1355Y-5.625
X3.198Y-4.5125
X3.198Y-4.6322
X3.273Y-5.0625
X3.273Y-5.5875
X3.2855Y-4.1125
X3.2855Y-4.2621
X3.2855Y-4.6125
X3.3855Y-4.5125
X3.3855Y-5.1375
X3.3855Y-5.5125
X3.4355Y-5.2625
X3.4355Y-5.3875
X3.4855Y-4.6125
X3.4855Y-4.7447
X3.4855Y-4.8447
X3.7105Y-4.5125
X3.7105Y-4.6322
X3.7105Y-4.8447
X3.7855Y-5.2625
X3.7855Y-5.3875
X3.8105Y-4.7447
X3.8355Y-5.1375
X3.8355Y-5.5125
X3.9105Y-4.8447
X3.948Y-5.0625
X3.948Y-5.5875
X3.998Y-4.7447
X3.998Y-4.8447
X4.0855Y-5.625
X4.1105Y-4.5125
X4.1105Y-4.6322
X4.198Y-4.6125
X4.223Y-5.0625
X4.223Y-5.5875
X4.298Y-4.5125
X4.3355Y-5.1375
X4.3355Y-5.5125
X4.3855Y-5.2625
X4.3855Y-5.3875
X4.398Y-4.6125
X4.398Y-4.7447
X4.398Y-4.8447
X4.5355Y-3.7
X4.5355Y-3.8
X4.5355Y-3.9
X4.5355Y-4.0
X4.5355Y-4.1
X4.5355Y-4.3625
X4.5355Y-4.7625
X4.7355Y-4.3625
X4.7355Y-4.7625
X4.848Y-5.2625
X4.848Y-5.3875
X4.8605Y-4.5125
X4.8605Y-4.6322
X4.8605Y-4.8447
X4.898Y-5.1375
X4.898Y-5.5125
X4.9355Y-3.7
X4.9355Y-3.8
X4.9355Y-3.9
X4.9355Y-4.0
X4.9355Y-4.1
X4.9605Y-4.7447
X5.0105Y-5.0625
X5.0105Y-5.5875
X5.0605Y-4.8447
X5.0855Y-3.5031
X5.0855Y-3.7
X5.0855Y-3.875
X5.0855Y-4.0719
X5.0855Y-4.1406
X5.0855Y-4.3375
X5.148Y-4.7447
X5.148Y-4.8447
X5.148Y-5.625
X5.1887Y-3.5031
X5.1887Y-3.7
X5.2355Y-3.825
X5.2355Y-4.125
X5.2605Y-4.5125
X5.2605Y-4.6322
X5.2855Y-3.3
X5.2855Y-3.7
X5.2855Y-5.0625
X5.2855Y-5.5875
X5.3355Y-3.825
X5.3355Y-4.125
X5.348Y-4.6125
X5.398Y-5.1375
X5.398Y-5.5125
X5.4105Y-3.5
X5.4105Y-3.6969
X5.4355Y-3.825
X5.4355Y-4.125
X5.448Y-4.5125
X5.448Y-5.2625
X5.448Y-5.3875
X5.5355Y-3.3
X5.5355Y-3.7
X5.5355Y-3.825
X5.5355Y-4.125
X5.548Y-4.6125
X5.548Y-4.7447
X5.548Y-4.8447
X5.6855Y-3.3
X5.6855Y-3.7
X5.6855Y-3.775
X5.6855Y-4.175
X5.7105Y-4.5125
X5.7105Y-4.6322
X5.7105Y-4.8447
X5.798Y-3.3
X5.798Y-3.7
X5.798Y-5.2625
X5.798Y-5.3875
X5.8105Y-4.7447
X5.848Y-5.1375
X5.848Y-5.5125
X5.9105Y-3.65
X5.9105Y-4.8447
X5.9605Y-5.0625
X5.9605Y-5.5875
X5.998Y-4.7447
X5.998Y-4.8447
X6.0105Y-3.55
X6.023Y-3.825
X6.023Y-4.125
X6.098Y-5.625
X6.1105Y-3.65
X6.1105Y-4.5125
X6.1105Y-4.6322
X6.123Y-3.825
X6.123Y-4.125
X6.198Y-4.6125
X6.2105Y-2.9375
X6.223Y-3.825
X6.223Y-4.125
X6.2355Y-5.0625
X6.2355Y-5.5875
X6.248Y-3.55
X6.248Y-3.65
X6.298Y-4.5125
X6.323Y-3.825
X6.323Y-4.125
X6.348Y-5.1375
X6.348Y-5.5125
X6.398Y-4.6125
X6.398Y-4.7447
X6.398Y-4.8447
X6.398Y-5.2625
X6.398Y-5.3875
X6.423Y-3.825
X6.423Y-4.125
X6.523Y-3.825
X6.523Y-4.125
X6.5355Y-4.3625
X6.5355Y-4.7625
X6.6105Y-2.9375
X6.623Y-3.825
X6.623Y-4.125
X6.648Y-3.55
X6.648Y-3.65
X6.6605Y-3.275
X6.6605Y-3.375
X6.698Y-2.9375
X6.723Y-3.825
X6.723Y-4.125
X6.7355Y-4.3625
X6.7355Y-4.7625
X6.8605Y-5.2625
X6.8605Y-5.3875
X6.873Y-3.8781
X6.873Y-4.075
X6.873Y-4.5125
X6.873Y-4.6322
X6.873Y-4.8447
X6.9105Y-5.1375
X6.9105Y-5.5125
X6.973Y-4.7447
X7.023Y-5.0625
X7.023Y-5.5875
X7.0605Y-3.275
X7.0605Y-3.375
X7.073Y-4.8447
X7.098Y-2.9375
X7.1605Y-3.375
X7.1605Y-4.7447
X7.1605Y-4.8447
X7.1605Y-5.625
X7.1855Y-2.9375
X7.2605Y-3.275
X7.2605Y-3.475
X7.273Y-4.5125
X7.273Y-4.6322
X7.298Y-5.0625
X7.298Y-5.5875
X7.3605Y-4.6125
X7.4105Y-5.1375
X7.4105Y-5.5125
X7.4355Y-3.375
X7.4355Y-3.825
X7.4355Y-4.125
X7.4605Y-4.5125
X7.4605Y-5.2625
X7.4605Y-5.3875
X7.5355Y-3.275
X7.5355Y-3.475
X7.5355Y-3.825
X7.5355Y-4.125
X7.5605Y-4.6125
X7.5605Y-4.7447
X7.5605Y-4.8447
X7.5855Y-2.9375
X7.6355Y-3.825
X7.6355Y-4.125
X7.673Y-2.9375
X7.698Y-3.375
X7.7355Y-3.825
X7.7355Y-4.125
X7.773Y-4.5125
X7.773Y-4.6322
X7.773Y-4.8447
X7.798Y-3.275
X7.798Y-3.475
X7.8105Y-5.2625
X7.8105Y-5.3875
X7.8355Y-3.825
X7.8355Y-4.125
X7.8605Y-5.1375
X7.8605Y-5.5125
X7.873Y-4.7447
X7.9355Y-3.825
X7.9355Y-4.125
X7.948Y-3.375
X7.948Y-3.475
X7.973Y-4.8447
X7.973Y-5.0625
X7.973Y-5.5875
X8.0355Y-3.825
X8.0355Y-4.125
X8.0605Y-4.7447
X8.0605Y-4.8447
X8.073Y-2.9375
X8.1105Y-5.625
X8.1355Y-3.825
X8.1355Y-4.125
X8.1605Y-2.9375
X8.173Y-4.5125
X8.173Y-4.6322
X8.248Y-5.0625
X8.248Y-5.5875
X8.2605Y-4.6125
X8.2855Y-3.8781
X8.2855Y-4.075
X8.348Y-3.375
X8.348Y-3.475
X8.3605Y-4.5125
X8.3605Y-5.1375
X8.3605Y-5.5125
X8.4105Y-5.2625
X8.4105Y-5.3875
X8.4605Y-4.6125
X8.4605Y-4.7447
X8.4605Y-4.8447
X8.5125Y-3.175
X8.5125Y-3.575
X8.5605Y-2.9375
X8.65Y-4.75
X8.65Y-5.15
T3
X6.3213Y-2.6895
X6.4984Y-2.6895
X6.8088Y-2.6895
X6.9859Y-2.6895
X7.2963Y-2.6895
X7.4734Y-2.6895
X7.7838Y-2.6895
X7.9609Y-2.6895
X8.2713Y-2.6895
X8.4484Y-2.6895
T4
X3.7605Y-4.1129
X3.7605Y-4.2625
X4.5355Y-4.8615
X4.6355Y-4.8615
X4.7355Y-4.8615
X6.5355Y-4.8625
X6.6355Y-4.8625
X6.7355Y-4.8625
X8.7625Y-2.8375
X8.7625Y-2.9375
X8.7625Y-3.175
X8.7625Y-3.275
X8.7625Y-3.375
X8.7625Y-3.475
X8.7625Y-3.575
X8.7625Y-3.675
X8.7625Y-3.775
X8.7625Y-3.875
X8.7625Y-3.975
X8.7625Y-4.075
X8.7625Y-4.175
X8.7625Y-4.275
X8.7625Y-4.375
X8.7625Y-4.475
T5
X2.9355Y-3.6875
X2.9355Y-4.0875
X4.4105Y-3.5625
X4.4105Y-3.9625
X4.648Y-3.5559
X4.748Y-3.5559
X4.848Y-3.5559
T6
X4.1105Y-4.2625
X4.3074Y-4.2625
X6.272Y-2.7875
X6.548Y-2.7875
X6.7595Y-2.7875
X7.0355Y-2.7875
X7.247Y-2.7875
X7.523Y-2.7875
X7.7345Y-2.7875
X8.0105Y-2.7875
X8.222Y-2.7875
X8.498Y-2.7875
T7
X2.6448Y-3.3125
X2.6448Y-3.9
X2.648Y-4.2625
X2.648Y-4.4625
X2.648Y-4.6625
X2.65Y-4.95
T8
X3.619Y-3.0522
X3.923Y-3.3562
T9
X2.1759Y-3.1549
X2.1759Y-5.1234
X4.1355Y-3.875
X9.0656Y-3.1549
X9.0656Y-5.1234
T10
X4.748Y-2.9
T11
X3.3008Y-3.675
X4.1416Y-2.8343
T4
G00X2.46Y-2.8675
M15
G01X2.46Y-2.9463
M16
G05
G00X2.6844Y-2.7888
M15
G01X2.6056Y-2.7888
M16
G05
G00X2.6844Y-3.025
M15
G01X2.6056Y-3.025
M16
G05
T0
M30
