%TF.GenerationSoftware,KiCad,Pcbnew,(6.0.9)*%
%TF.CreationDate,2023-02-11T16:03:26+01:00*%
%TF.ProjectId,display_board,64697370-6c61-4795-9f62-6f6172642e6b,rev?*%
%TF.SameCoordinates,Original*%
%TF.FileFunction,Legend,Bot*%
%TF.FilePolarity,Positive*%
%FSLAX46Y46*%
G04 Gerber Fmt 4.6, Leading zero omitted, Abs format (unit mm)*
G04 Created by KiCad (PCBNEW (6.0.9)) date 2023-02-11 16:03:26*
%MOMM*%
%LPD*%
G01*
G04 APERTURE LIST*
%ADD10C,0.150000*%
%ADD11C,0.120000*%
G04 APERTURE END LIST*
D10*
%TO.C,JP1*%
X220810833Y-138834880D02*
X220810833Y-139549166D01*
X220858452Y-139692023D01*
X220953690Y-139787261D01*
X221096547Y-139834880D01*
X221191785Y-139834880D01*
X220334642Y-139834880D02*
X220334642Y-138834880D01*
X219953690Y-138834880D01*
X219858452Y-138882500D01*
X219810833Y-138930119D01*
X219763214Y-139025357D01*
X219763214Y-139168214D01*
X219810833Y-139263452D01*
X219858452Y-139311071D01*
X219953690Y-139358690D01*
X220334642Y-139358690D01*
X218810833Y-139834880D02*
X219382261Y-139834880D01*
X219096547Y-139834880D02*
X219096547Y-138834880D01*
X219191785Y-138977738D01*
X219287023Y-139072976D01*
X219382261Y-139120595D01*
%TO.C,JP2*%
X220810833Y-136294880D02*
X220810833Y-137009166D01*
X220858452Y-137152023D01*
X220953690Y-137247261D01*
X221096547Y-137294880D01*
X221191785Y-137294880D01*
X220334642Y-137294880D02*
X220334642Y-136294880D01*
X219953690Y-136294880D01*
X219858452Y-136342500D01*
X219810833Y-136390119D01*
X219763214Y-136485357D01*
X219763214Y-136628214D01*
X219810833Y-136723452D01*
X219858452Y-136771071D01*
X219953690Y-136818690D01*
X220334642Y-136818690D01*
X219382261Y-136390119D02*
X219334642Y-136342500D01*
X219239404Y-136294880D01*
X219001309Y-136294880D01*
X218906071Y-136342500D01*
X218858452Y-136390119D01*
X218810833Y-136485357D01*
X218810833Y-136580595D01*
X218858452Y-136723452D01*
X219429880Y-137294880D01*
X218810833Y-137294880D01*
D11*
%TO.C,JP1*%
X218187500Y-138382500D02*
X215387500Y-138382500D01*
X215387500Y-138382500D02*
X215387500Y-140382500D01*
X215387500Y-140382500D02*
X218187500Y-140382500D01*
X218187500Y-140382500D02*
X218187500Y-138382500D01*
%TO.C,JP2*%
X218187500Y-135842500D02*
X215387500Y-135842500D01*
X215387500Y-135842500D02*
X215387500Y-137842500D01*
X215387500Y-137842500D02*
X218187500Y-137842500D01*
X218187500Y-137842500D02*
X218187500Y-135842500D01*
%TD*%
M02*
